<svg data-name="Layer 1" xmlns="http://www.w3.org/2000/svg" width="772.909" height="531.441"><path d="M106.07 528.4A141.78 141.78 0 01.015 389.006c.122-7.912.954-15.99 4.28-23.17s9.504-13.39 17.232-15.091c8.434-1.857 17.333 1.938 23.619 7.86s10.406 13.737 14.198 21.496c22.837 46.734 40.19 96.88 46.686 148.488z" fill="#f2f2f2"/><path d="M17.702 352.304l16.006 36.367 16.006 36.367c5.069 11.518 10.128 23.04 15.368 34.482 5.193 11.34 10.565 22.603 16.295 33.684 5.722 11.064 11.804 21.949 18.405 32.515q1.233 1.973 2.49 3.932c.58.904 2.03.065 1.447-.845-6.728-10.488-12.928-21.306-18.742-32.324-5.82-11.03-11.261-22.258-16.5-33.575-5.268-11.377-10.332-22.846-15.384-34.32q-7.975-18.117-15.948-36.236L21.14 355.984l-1.991-4.525c-.434-.984-1.877-.133-1.446.845z" fill="#fff"/><path d="M99.392 528.653A82.967 82.967 0 016.7 484.913c-2.073-4.142-3.821-8.56-4.033-13.186s1.32-9.517 4.872-12.487c3.878-3.24 9.523-3.673 14.385-2.295s9.111 4.322 13.174 7.327c24.474 18.098 47.02 39.449 64.325 64.49z" fill="#f2f2f2"/><path d="M5.974 461.083l18.128 14.56 18.128 14.56c5.74 4.611 11.478 9.228 17.287 13.753 5.758 4.486 11.587 8.883 17.554 13.09 5.958 4.2 12.054 8.208 18.333 11.912q1.173.692 2.355 1.37c.545.312 1.071-.515.522-.83-6.324-3.629-12.463-7.572-18.456-11.723-6-4.155-11.855-8.515-17.63-12.976-5.807-4.485-11.533-9.073-17.253-13.666L26.88 476.625l-18.128-14.56-2.256-1.812c-.49-.394-1.01.438-.522.83z" fill="#fff"/><path d="M765.91 0h-487a7.008 7.008 0 00-7 7v330a7.008 7.008 0 007 7h487a7.008 7.008 0 007-7V7a7.008 7.008 0 00-7-7zm5 337a5.002 5.002 0 01-5 5h-487a5.002 5.002 0 01-5-5V7a5.002 5.002 0 015-5h487a5.002 5.002 0 015 5z" fill="#3f3d56"/><path fill="#3f3d56" d="M272.909 28.04h499v2h-499z"/><circle cx="289.909" cy="15" r="6" fill="#3f3d56"/><circle cx="307.159" cy="15" r="6" fill="#3f3d56"/><circle cx="324.409" cy="15" r="6" fill="#3f3d56"/><path d="M394.778 74.5h-84a7 7 0 110-14h84a7 7 0 010 14zm115 34h-199a7 7 0 010-14h199a7 7 0 010 14z" fill="#ccc"/><path d="M573.997 122.023A91.004 91.004 0 00649.041 264.5v-79.44z" fill="#a61510"/><path d="M649.041 82.5a90.896 90.896 0 00-75.044 39.523l75.044 63.037z" fill="#ccc"/><path d="M649.041 265.5h-1v-184h1a92 92 0 110 184zm1-181.995v179.99a90 90 0 000-179.99z" fill="#3f3d56"/><path d="M368.778 303h-17a4.505 4.505 0 01-4.5-4.5v-49a4.505 4.505 0 014.5-4.5h17a4.505 4.505 0 014.5 4.5v49a4.505 4.505 0 01-4.5 4.5z" fill="#ccc"/><path d="M418.778 303h-17a4.505 4.505 0 01-4.5-4.5v-72a4.505 4.505 0 014.5-4.5h17a4.505 4.505 0 014.5 4.5v72a4.505 4.505 0 01-4.5 4.5z" fill="#ff6584"/><path d="M468.778 303h-17a4.505 4.505 0 01-4.5-4.5v-92a4.505 4.505 0 014.5-4.5h17a4.505 4.505 0 014.5 4.5v92a4.505 4.505 0 01-4.5 4.5z" fill="#a61510"/><path d="M368.778 303.5h-17a5.006 5.006 0 01-5-5v-110a5.006 5.006 0 015-5h17a5.006 5.006 0 015 5v110a5.006 5.006 0 01-5 5zm-17-118a3.003 3.003 0 00-3 3v110a3.003 3.003 0 003 3h17a3.003 3.003 0 003-3v-110a3.003 3.003 0 00-3-3zm67 118h-17a5.006 5.006 0 01-5-5v-110a5.006 5.006 0 015-5h17a5.006 5.006 0 015 5v110a5.006 5.006 0 01-5 5zm-17-118a3.003 3.003 0 00-3 3v110a3.003 3.003 0 003 3h17a3.003 3.003 0 003-3v-110a3.003 3.003 0 00-3-3zm67 118h-17a5.006 5.006 0 01-5-5v-110a5.006 5.006 0 015-5h17a5.006 5.006 0 015 5v110a5.006 5.006 0 01-5 5zm-17-118a3.003 3.003 0 00-3 3v110a3.003 3.003 0 003 3h17a3.003 3.003 0 003-3v-110a3.003 3.003 0 00-3-3z" fill="#3f3d56"/><path d="M112.431 359.003a10.056 10.056 0 00-8.784-12.673l-8.6-34.684-12.587 13.653 10.096 30.844a10.11 10.11 0 0019.875 2.86z" fill="#ffb8b8"/><path d="M89.375 348.335a4.505 4.505 0 01-2.518-2.67l-14.356-44.178a46.373 46.373 0 01.764-32.635l13.838-34.355a14.497 14.497 0 1128.599 4.767l-19.093 55.558 6.683 45.238a4.515 4.515 0 01-2.54 4.504l-7.708 3.679a4.506 4.506 0 01-2.659.38 4.455 4.455 0 01-1.01-.288z" fill="#2f2e41"/><path fill="#ffb8b8" d="M160.343 518.443l12.26-.001 5.832-47.288-18.094.001.002 47.288z"/><path d="M196.247 529.825l-38.53.002-.001-14.887h23.644a14.887 14.887 0 0114.887 14.885z" fill="#2f2e41"/><path fill="#ffb8b8" d="M99.343 518.443l12.26-.001 5.832-47.288-18.094.001.002 47.288z"/><path d="M135.247 529.825l-38.53.002-.001-14.887h23.644a14.887 14.887 0 0114.887 14.885zm28.447-204.114l10.777 85.386q2.222 17.608 3.11 35.346l2.903 58.068a4 4 0 01-3.995 4.2h-16.356a4 4 0 01-3.955-3.4l-14.71-96.913a2 2 0 00-3.943-.067l-17.722 94.917a4 4 0 01-3.626 3.184l-15.054.955a4 4 0 01-4.29-4.114l4.861-155.562z" fill="#2f2e41"/><circle cx="115.946" cy="179.53" r="24.561" fill="#ffb8b8"/><path d="M96.694 349.711c6 14 32 24 38 4 4.64-15.46 23.02-21.96 31.13-24.11a4.016 4.016 0 002.86-4.86l-22.67-89.05a31.272 31.272 0 00-21.06-22.16c-18.02-5.58-37.02 5.91-40.07 24.52a137.157 137.157 0 00-1.59 15.76c-1.88 39.29 9.45 86.68 13.4 95.9z" fill="#a61510"/><path d="M178.084 349.686a10.056 10.056 0 00-12.753-8.668l-20.492-29.275L138 329.008l20.509 25.153a10.11 10.11 0 0019.574-4.475z" fill="#ffb8b8"/><path d="M152.734 348.019a4.505 4.505 0 01-3.309-1.586l-29.277-36.065a46.374 46.374 0 01-11.018-30.728l.564-37.033a14.497 14.497 0 1128.4-5.832l2.155 58.707 22.498 39.813a4.515 4.515 0 01-.751 5.116l-5.872 6.203a4.506 4.506 0 01-2.344 1.31 4.455 4.455 0 01-1.046.095zM97.304 199.62a4.007 4.007 0 005.902-2.369l.014-.056c.446-1.864.076-3.81-.052-5.723s.06-4.013 1.362-5.42c2.428-2.62 6.747-1.23 10.258-1.894a8.664 8.664 0 006.74-9.253c-.05-.397-.128-.795-.216-1.193a6.673 6.673 0 016.927-8.081c3.548.203 7.378 1.278 10.313-1.35a7.608 7.608 0 001.827-8.201c-1.677-4.839-6.414-7.372-11.102-8.764a40.62 40.62 0 00-34.43 5.65c-2.962 2.087-5.727 4.71-6.99 8.105s-.652 7.68 2.194 9.922a18.332 18.332 0 00-4.247 17.807c1.406 4.53 8.115 8.872 11.5 10.82z" fill="#2f2e41"/><path d="M276.106 531.44h-265a1 1 0 010-2h265a1 1 0 010 2z" fill="#3f3d56"/></svg>