<svg data-name="Layer 1" xmlns="http://www.w3.org/2000/svg" width="804.114" height="578.063"><path d="M341.5 270h-325A16.519 16.519 0 010 253.5v-237A16.519 16.519 0 0116.5 0h325A16.519 16.519 0 01358 16.5v237a16.519 16.519 0 01-16.5 16.5z" fill="#e6e6e6"/><path fill="#fff" d="M318.63 269.5h-2.23l-34.44-69.38-1-2-25.47-51.32-43.16-86.95-.99-2L182.87.5h2.24l28.46 57.35 1 2 42.06 84.74.99 2 25.46 51.28 35.55 71.63z"/><path fill="#fff" d="M.5 57.855h357v2H.5zm255.419 86.74H357.5v2H255.919z"/><path fill="#fff" d="M95.516.5h2v270h-2z"/><path fill="#fff" d="M96.516 198.117h186.062v2H96.516z"/><path d="M213 106c0 17.046-25.068 65.114-34.483 82.566a3.994 3.994 0 01-7.034 0C162.068 171.114 137 123.046 137 106a38 38 0 0176 0z" fill="#a61510"/><circle cx="175" cy="106" r="17" fill="#e6e6e6"/><circle cx="175" cy="200" r="7" fill="#a61510"/><path d="M175.27 304.86A38.735 38.735 0 10214 343.59a38.775 38.775 0 00-38.73-38.73zm0 75.33a36.595 36.595 0 1136.59-36.6 36.643 36.643 0 01-36.59 36.6z" fill="#e6e6e6"/><path d="M194.33 325.02a5.016 5.016 0 00-7.03.93l-17.28 22.53-7.31-5.6a5.014 5.014 0 10-6.1 7.96l11.29 8.64.05.04a4.984 4.984 0 003 1 5.036 5.036 0 003.99-1.96l20.32-26.51a5.017 5.017 0 00-.93-7.03z" fill="#a61510"/><path d="M550.75 421.38l-9.65-22.88-8.28-19.63-6.77-16.06a11.694 11.694 0 00-15.3-6.22l-92.04 38.83a11.722 11.722 0 00-6.22 15.29l24.71 58.57a11.67 11.67 0 0015.29 6.22l92.04-38.82a11.694 11.694 0 006.22-15.3zm-7.23 12.91l-92.03 38.82a9.088 9.088 0 01-11.9-4.83l-24.71-58.57a8.99 8.99 0 01-.41-5.79 8.71 8.71 0 011.02-2.44 9.063 9.063 0 014.23-3.67l92.04-38.82a9.046 9.046 0 015.92-.39 8.635 8.635 0 012.41 1.06 8.985 8.985 0 013.56 4.16l7.08 16.79v.01l7.67 18.17 9.96 23.6a9.086 9.086 0 01-4.84 11.9z" fill="#ccc"/><path d="M480.905 415.728a13.025 13.025 0 01-7.787.75l-59.804-12.807.544-2.537 59.803 12.808a10.494 10.494 0 0010.929-4.51l33.983-52.197 2.175 1.416-33.984 52.197a13.024 13.024 0 01-5.859 4.88z" fill="#ccc"/><circle cx="480.772" cy="415.704" r="15.568" fill="#a61510"/><path d="M652.28 263.82s-20.253-12.792-39.44 2.132l-12.792 133.247s47.969 37.31 59.694 2.132z" fill="#a61510"/><path fill="#ffb8b8" d="M657.225 566.679h12.26l4.083-47.116-16.345-.172.002 47.288z"/><path d="M693.13 578.062l-38.531.001-.001-14.886 23.644-.001a14.887 14.887 0 0114.887 14.886z" fill="#2f2e41"/><path fill="#ffb8b8" d="M612.912 566.679h-12.26l-5.833-47.288h18.095l-.002 47.288z"/><path d="M591.895 563.176h23.644v14.886h-38.531a14.887 14.887 0 0114.887-14.886zm91.832-163.444l-10.66 158.831-16.523-.533-21.852-127.384-20.254 125.785-19.187 1.066-5.33-164.16s81.014-18.122 93.806 6.395z" fill="#2f2e41"/><circle cx="633.427" cy="225.776" r="24.561" fill="#ffb8b8"/><path d="M648.55 259.023l6.395 4.264s26.65 0 28.782 15.99 7.995 125.252 1.599 125.252-7.462-8.528-7.462-8.528-4.264 1.066-12.792 9.594-13.857 8.528-17.055-4.264-24.518-110.862-4.264-128.983zm-30.914 0l-6.396 4.264s-26.65 0-28.781 15.99-7.995 125.252-1.6 125.252 7.463-8.528 7.463-8.528 4.264 1.066 12.791 9.594 13.858 8.528 17.056-4.264 24.518-110.862 4.264-128.983zm35.719-18.271a13.37 13.37 0 00-10.145-22.564c-3.397.113-6.597 1.503-9.838 2.523a32.535 32.535 0 01-15.285 1.376 20.41 20.41 0 01-13.017-7.685c-3.038-4.177-3.986-9.97-1.84-14.667 2.48-5.424 8.268-8.412 13.714-10.84a25.063 25.063 0 016.963-2.288 8.929 8.929 0 016.926 1.746c1.53 1.316 2.428 3.295 4.093 4.436 1.875 1.284 4.31 1.25 6.57 1.476a25.205 25.205 0 0112.208 45.54z" fill="#2f2e41"/><path d="M528.057 390.212a10.743 10.743 0 0110.104-13.01l16.318-22.985 10.519 10.714-15.574 23.38a10.8 10.8 0 01-21.367 1.9zm144.635 20.982a10.743 10.743 0 01.876-16.45l.29-28.186 14.75 2.798.548 28.087a10.8 10.8 0 01-16.464 13.75z" fill="#ffb8b8"/><path d="M590.387 344.62l-4.197-66.942L585 273s-42.432 54.563-42.53 95.61c0 0 20.786 10.127 23.984 2.666 1.256-2.931 5.546-7.276 23.933-26.657zm89.609-66.942l3.835 2.43s13.737 60.455 10.023 100.97c0 0-21.853 10.126-25.05 2.665s11.192-106.065 11.192-106.065z" fill="#2f2e41"/><path d="M803.114 578h-381a1 1 0 010-2h381a1 1 0 010 2z" fill="#3f3d56"/></svg>